<?xml version="1.0" encoding="utf-8"?>
<!-- Generator: Adobe Illustrator 13.0.0, SVG Export Plug-In . SVG Version: 6.00 Build 14948)  -->

<svg version="1.2" baseProfile="tiny" id="Layer_1" xmlns="http://www.w3.org/2000/svg" xmlns:xlink="http://www.w3.org/1999/xlink"
	 x="0px" y="0px" width="233.684px" height="39px" viewBox="0 0 233.684 39" xml:space="preserve">
<g>
	<g>
		<path fill="#193F92" d="M13.781,8.923H13.71c-2.258,4.919-4.309,10.055-6.205,15.152H0C3.504,16.817,6.596,9.524,10.379,0.461
			h11.719c-0.877,4.213-1.53,8.39-2.535,12.462h0.07c2.327-4.106,5.092-8.249,7.667-12.462h11.967
			c-2.771,6.585-5.96,14.763-9.069,23.614h-7.86c0.897-1.947,4.021-9.737,5.923-15.152H28.19
			c-3.026,4.991-6.291,10.055-9.533,15.152h-7.682L13.781,8.923z"/>
		<path fill="#193F92" d="M58.247,15.082c-2.287,6.515-8.523,9.453-14.472,9.453c-7.754,0-9.396-4.496-7.843-8.921
			c2.25-6.408,8.788-9.701,14.699-9.701C56.297,5.913,60.435,8.851,58.247,15.082z M44.524,15.543
			c-0.546,1.559-0.335,2.974,1.293,2.974c1.912,0,3.364-2.019,3.96-3.717c0.534-1.523,0.264-2.868-1.294-2.868
			C46.537,11.932,45.147,13.772,44.524,15.543z"/>
		<path fill="#193F92" d="M75.714,6.373h8.675c-4.835,5.806-9.438,11.754-13.969,17.702h-9.063
			c0.319-5.948,0.364-11.825,0.408-17.702h8.532c-0.293,3.257-0.693,6.514-1.137,9.594h0.07L75.714,6.373z"/>
		<path fill="#193F92" d="M89.189,16.499c-0.796,2.267,1.277,2.514,3.047,2.514c2.125,0,4.637-0.603,6.854-1.168l-3.151,6.054
			c-2.296,0.389-4.544,0.637-6.739,0.637c-2.796,0-11.187,0-8.166-8.603c1.068-3.046,4.755-10.02,14.208-10.02
			c5.24,0,8.957,2.018,6.894,7.895c-0.311,0.886-0.727,1.771-1.228,2.691H89.189z M94.356,13.277l0.225-0.637
			c0.385-1.097,0.14-1.912-1.064-1.912c-1.451,0-2.442,1.31-3.018,2.549H94.356z"/>
		<path fill="#193F92" d="M133.586,11.861c-1.852,5.275-7.849,12.674-19.604,12.674c-7.257,0-13.25-3.398-10.366-11.612
			C107.63,1.487,119.411,0,123.482,0C130.881,0,136.471,3.646,133.586,11.861z M112.99,12.64c-1.093,3.116,0.34,5.487,3.491,5.487
			c3.364,0,6.699-3.045,7.816-6.23c1.058-3.01-0.268-5.487-3.384-5.487C117.479,6.409,114.147,9.347,112.99,12.64z"/>
		<path fill="#193F92" d="M146.078,8.25c1.23-0.885,3.759-2.337,7.228-2.337c4.886,0,5.743,2.301,4.724,5.204
			c-0.497,1.417-3.182,7.648-5.081,12.958h-8.638c1.108-2.655,2.324-5.31,3.257-7.966c0.448-1.275,1.218-3.47-0.481-3.47
			c-1.734,0-3.066,1.876-3.847,3.293c-1.477,2.69-2.41,5.452-3.531,8.143h-8.746c2.879-5.877,5.167-11.79,7.384-17.702h8.531
			L146.078,8.25z"/>
		<path fill="#193F92" d="M155.582,24.075l2.262-5.674h5.97l-2.262,5.674H155.582z"/>
		<path fill="#193F92" d="M190.088,14.798c-1.407,4.007-5.961,9.628-14.891,9.628c-5.513,0-10.065-2.584-7.875-8.82
			c3.05-8.687,11.997-9.816,15.09-9.816C188.033,5.79,192.277,8.559,190.088,14.798z M174.443,15.39
			c-0.83,2.366,0.258,4.169,2.651,4.169c2.555,0,5.088-2.313,5.938-4.734c0.803-2.285-0.203-4.167-2.57-4.167
			C177.854,10.657,175.322,12.889,174.443,15.39z"/>
		<path fill="#193F92" d="M200.288,10.711c-1.861,4.463-3.563,8.928-5.175,13.364h-6.858c2.84-5.942,5.107-11.939,7.213-17.936
			h10.729c2.26,0,6.862,0.295,5.219,4.974c-0.888,2.528-2.757,4.25-5.428,5.271c-0.109,2.609-0.002,5.136-0.011,7.69h-7.341
			c0.42-3.415,0.828-6.803,1.066-10.166c0.349,0.082,0.743,0.108,1.12,0.108c1.263,0,3.009-0.376,3.548-1.91
			c0.5-1.425-1.069-1.397-2.468-1.397H200.288z"/>
		<path fill="#193F92" d="M222.579,17.998h-1.748l1.847-4.572h8.337c-1.168,2.635-3.935,9.52-4.253,10.353
			c-2.616,0.403-5.256,0.646-8.402,0.646c-1.829,0-10.543,0-7.549-8.525c1.341-3.819,5.7-10.111,15.489-10.111
			c2.232,0,4.333,0.295,6.397,0.699l-1.642,5.136c-1.549-0.645-3.346-0.967-5.255-0.967c-3.469,0-6.727,1.773-8.011,5.431
			c-0.803,2.286,0.097,3.63,2.355,3.63c0.592,0,1.185-0.08,1.787-0.188L222.579,17.998z"/>
	</g>
	<g>
		<path fill="#C22326" d="M70.07,38.778h-2.899l3.41-9.712h3.039c2.773,0,4.369,1.304,3.121,4.854
			C75.543,37.335,72.567,38.778,70.07,38.778z M72.888,30.952h-1.026l-2.085,5.938h0.957c2.038,0,3.387-1.192,4.01-2.97
			C75.439,31.938,74.941,30.952,72.888,30.952z"/>
		<path fill="#C22326" d="M76.562,38.778l3.409-9.712h6.74l-0.666,1.9h-4.799l-0.59,1.679h2.788l-0.664,1.887h-2.787l-0.824,2.345
			h5.008l-0.667,1.901H76.562z"/>
		<path fill="#C22326" d="M92.304,38.778l1.252-3.565c0.186-0.528,0.647-1.762,0.779-2.137c-0.266,0.361-0.8,1.055-1.245,1.608
			L89.605,39l-0.455-4.315c-0.055-0.554-0.102-1.247-0.114-1.608c-0.131,0.375-0.537,1.608-0.723,2.137l-1.252,3.565h-1.9
			l3.41-9.712h1.873l0.482,4.397c0.059,0.541,0.092,1.277,0.095,1.625c0.251-0.362,0.777-1.069,1.223-1.625l3.499-4.397h1.915
			l-3.411,9.712H92.304z"/>
		<path fill="#C22326" d="M99.977,38.931c-2.648,0-3.494-2.054-2.458-5.01c1.038-2.954,3.327-5.008,5.975-5.008
			c2.65,0,3.497,2.054,2.458,5.008C104.915,36.877,102.626,38.931,99.977,38.931z M102.817,30.842c-1.567,0-2.691,1.346-3.3,3.079
			c-0.609,1.735-0.43,3.081,1.137,3.081c1.568,0,2.693-1.346,3.302-3.081C104.564,32.188,104.385,30.842,102.817,30.842z"/>
		<path fill="#C22326" d="M113.78,31.896c-0.112-0.666-0.531-1.055-1.405-1.055c-1.457,0-2.736,1.277-3.37,3.079
			c-0.614,1.749-0.235,3.081,1.221,3.081c0.873,0,1.519-0.375,2.333-1.234l1.295,0.971c-1.147,1.374-2.599,2.192-4.362,2.192
			c-2.537,0-3.562-1.941-2.485-5.01c1.038-2.954,3.534-5.008,6.072-5.008c1.831,0,2.629,0.888,2.795,2.151L113.78,31.896z"/>
		<path fill="#C22326" d="M120.323,38.778l-0.506-3.496h-1.955l-1.229,3.496h-1.942l3.41-9.712h4.521
			c1.831,0,2.988,1.013,2.263,3.08c-0.513,1.457-1.458,2.372-2.862,2.858l0.533,3.773H120.323z M121.92,30.952h-2.539l-0.876,2.499
			h2.538c0.901,0,1.533-0.417,1.83-1.264C123.18,31.314,122.779,30.952,121.92,30.952z"/>
		<path fill="#C22326" d="M130.436,38.778l-0.003-2.164h-3.55l-1.523,2.164h-2.08l7.127-9.712h1.885l0.28,9.712H130.436z
			 M130.409,33.006c0.007-0.568,0.017-1.15,0.047-1.513c-0.225,0.362-0.622,0.944-1.018,1.513l-1.243,1.763h2.22L130.409,33.006z"/>
		<path fill="#C22326" d="M141.579,31.896c-0.112-0.666-0.531-1.055-1.405-1.055c-1.457,0-2.737,1.277-3.37,3.079
			c-0.613,1.749-0.235,3.081,1.221,3.081c0.873,0,1.519-0.375,2.334-1.234l1.295,0.971c-1.146,1.374-2.6,2.192-4.362,2.192
			c-2.537,0-3.562-1.941-2.484-5.01c1.037-2.954,3.534-5.008,6.071-5.008c1.832,0,2.629,0.888,2.796,2.151L141.579,31.896z"/>
		<path fill="#C22326" d="M148,34.935l-1.35,3.844h-1.941l1.335-3.802l-1.601-5.91h2.233l0.564,2.303
			c0.142,0.583,0.333,1.54,0.387,1.9c0.308-0.36,1.146-1.29,1.723-1.9l2.18-2.303h2.206L148,34.935z"/>
		<path fill="#C22326" d="M155.209,38.778l3.41-9.712h1.941l-3.409,9.712H155.209z"/>
		<path fill="#C22326" d="M165.501,38.778l-1.704-5.3c-0.109-0.361-0.258-0.847-0.295-1.097c-0.127,0.36-0.527,1.581-0.718,2.122
			l-1.501,4.274h-1.914l3.41-9.712h1.859l1.637,5.133c0.109,0.361,0.259,0.847,0.295,1.096c0.127-0.36,0.529-1.581,0.719-2.122
			l1.441-4.106h1.914l-3.41,9.712H165.501z"/>
		<path fill="#C22326" d="M179.385,38.778l-0.002-2.164h-3.551l-1.523,2.164h-2.08l7.128-9.712h1.885l0.28,9.712H179.385z
			 M179.359,33.006c0.006-0.568,0.016-1.15,0.047-1.513c-0.226,0.362-0.623,0.944-1.018,1.513l-1.243,1.763h2.22L179.359,33.006z"/>
		<path fill="#C22326" d="M190.527,31.896c-0.113-0.666-0.531-1.055-1.406-1.055c-1.455,0-2.736,1.277-3.368,3.079
			c-0.615,1.749-0.236,3.081,1.221,3.081c0.873,0,1.519-0.375,2.333-1.234l1.295,0.971c-1.146,1.374-2.6,2.192-4.361,2.192
			c-2.537,0-3.562-1.941-2.485-5.01c1.038-2.954,3.534-5.008,6.072-5.008c1.831,0,2.629,0.888,2.796,2.151L190.527,31.896z"/>
		<path fill="#C22326" d="M198.092,30.981l-2.738,7.797h-1.941l2.737-7.797h-2.787l0.672-1.915h7.517l-0.672,1.915H198.092z"/>
		<path fill="#C22326" d="M199.736,38.778l3.409-9.712h1.942l-3.409,9.712H199.736z"/>
		<path fill="#C22326" d="M207.547,38.931c-2.649,0-3.496-2.054-2.458-5.01c1.038-2.954,3.326-5.008,5.975-5.008
			c2.65,0,3.495,2.054,2.459,5.008C212.484,36.877,210.196,38.931,207.547,38.931z M210.387,30.842c-1.567,0-2.691,1.346-3.3,3.079
			c-0.609,1.735-0.431,3.081,1.137,3.081c1.568,0,2.691-1.346,3.301-3.081C212.134,32.188,211.955,30.842,210.387,30.842z"/>
		<path fill="#C22326" d="M219.516,38.778l-1.704-5.3c-0.108-0.361-0.257-0.847-0.295-1.097c-0.127,0.36-0.526,1.581-0.717,2.122
			l-1.501,4.274h-1.915l3.411-9.712h1.858l1.638,5.133c0.108,0.361,0.257,0.847,0.295,1.096c0.127-0.36,0.527-1.581,0.718-2.122
			l1.44-4.106h1.915l-3.41,9.712H219.516z"/>
	</g>
	<g>
		<path fill="#172586" d="M231.029,29.57c-1.506,0-2.654-1.147-2.654-2.655c0-1.506,1.148-2.654,2.654-2.654
			c1.508,0,2.654,1.148,2.654,2.654C233.684,28.423,232.537,29.57,231.029,29.57z M231.029,24.783c-1.205,0-2.11,0.853-2.11,2.132
			c0,1.28,0.905,2.133,2.11,2.133s2.11-0.853,2.11-2.133C233.14,25.636,232.234,24.783,231.029,24.783z M231.5,28.29l-0.471-0.971
			h-0.324v0.971h-0.786v-2.881h1.294c0.677,0,1.125,0.257,1.125,0.94c0,0.435-0.206,0.698-0.522,0.846l0.574,1.095H231.5z
			 M231.191,26.062h-0.486v0.625h0.472c0.265,0,0.368-0.11,0.368-0.315C231.545,26.188,231.441,26.062,231.191,26.062z"/>
	</g>
</g>
</svg>
